:SAMPLES-PER-SECOND 30
:FULLY-SPECIFIED
:DEGREES
1
root  -100.404 38.492 -2.6905 135.62 85.1483 137.293
RightUpLeg  -27.2584 -0.406803 1.5797
RightLeg  37.5516 -34.6013 -30.8843
RightFoot  6.01978 0.675192 -3.93242
RightToes  -1.74624e-010 -1.59028e-015 9.93923e-017
Spine  -4.39005 -4.6367 -13.9362
Spine1  12.9418 -6.45965 5.37442
HEad  -19.2483 0.665214 2.85213
LeftShoulder1  9.93923e-017 0 1.22299e-017
LeftArm  23.129 8.49035 -80.4447
LeftForeArm  -41.2679 -32.6248 20.2496
LeftHand  1.12512 8.14271 -2.22223
RightShoulder  1.98785e-016 -4.96962e-017 1.55301e-017
RightArm  -6.43682 -52.4767 79.4967
RightForeArm  -10.9749 11.5609 2.12768
RightHand  2.73978 -21.8849 -4.91929
LeftUpLeg  -1.31098 -1.79019 -6.71286
LeftLeg  22.6862 -10.1791 3.98817
LeftFoot  -17.6327 0.0172455 1.85555
LeftToes  4.87492e-010 -9.21916e-011 1.24689e-011
2
root  -99.3342 38.1908 -2.62565 136.776 83.9898 138.311
RightUpLeg  -26.8443 -0.622972 0.34634
RightLeg  28.9833 -35.2527 -23.3898
RightFoot  -1.07617 0.219081 -1.90997
RightToes  -1.74624e-010 -1.59028e-015 9.93923e-017
Spine  -4.68949 -5.26941 -16.0818
Spine1  12.8046 -7.17921 6.65742
HEad  -19.2498 0.0196421 3.18924
LeftShoulder1  9.93923e-017 0 1.22299e-017
LeftArm  22.9515 5.04059 -79.8228
LeftForeArm  -40.7516 -33.9057 20.8519
LeftHand  1.10605 7.91627 -0.962403
RightShoulder  1.98785e-016 -4.96962e-017 1.55301e-017
RightArm  -3.65646 -54.4833 77.5771
RightForeArm  -12.1202 12.0457 1.76566
RightHand  2.85474 -22.0184 -5.59034
LeftUpLeg  -0.071219 -1.5928 -7.03579
LeftLeg  23.7504 -11.1258 3.77307
LeftFoot  -19.4486 0.044187 1.88764
LeftToes  4.87492e-010 -9.21916e-011 1.24689e-011
3
root  -97.1561 37.5467 -2.48014 137.579 81.8365 138.963
RightUpLeg  -24.9562 -0.631096 -2.38947
RightLeg  10.1953 -32.2991 -8.02473
RightFoot  -13.3532 -0.0315286 -0.658503
RightToes  -1.74624e-010 -1.59028e-015 9.93923e-017
Spine  -5.69272 -6.53936 -19.6235
Spine1  12.5781 -8.3046 8.55671
HEad  -19.4604 -0.288989 3.59799
LeftShoulder1  9.93923e-017 0 1.22299e-017
LeftArm  22.4972 -1.04066 -78.632
LeftForeArm  -39.6064 -35.4787 21.6526
LeftHand  1.05509 7.49153 0.447926
RightShoulder  1.98785e-016 -4.96962e-017 1.55301e-017
RightArm  0.834668 -57.7308 73.8588
RightForeArm  -13.1008 12.466 1.50468
RightHand  2.98283 -22.2188 -6.26962
LeftUpLeg  2.8358 -0.787464 -7.19095
LeftLeg  25.4958 -13.1379 3.04254
LeftFoot  -22.9344 0.0693252 1.67043
LeftToes  4.87492e-010 -9.21916e-011 1.24689e-011
4
root  -94.5851 36.7686 -2.28512 138.041 79.5693 139.506
RightUpLeg  -24.0726 -0.647955 -5.31361
RightLeg  -4.98787 -25.8343 1.97274
RightFoot  -23.8795 -0.0289954 -0.596527
RightToes  -1.74624e-010 -1.59028e-015 9.93923e-017
Spine  -7.17578 -8.03211 -22.4887
Spine1  12.1708 -9.15432 9.96435
HEad  -19.8174 0.357758 3.69945
LeftShoulder1  9.93923e-017 0 1.22299e-017
LeftArm  21.7208 -6.38405 -77.4414
LeftForeArm  -38.3067 -36.0271 21.9914
LeftHand  0.999951 7.11483 1.07895
RightShoulder  1.98785e-016 -4.96962e-017 1.55301e-017
RightArm  3.89245 -60.3652 70.0798
RightForeArm  -12.6337 12.2528 1.81162
RightHand  2.94157 -22.1884 -6.01536
LeftUpLeg  6.93585 0.529528 -6.34159
LeftLeg  26.8538 -16.2071 1.37839
LeftFoot  -25.9576 -0.023287 0.472263
LeftToes  4.87492e-010 -9.21916e-011 1.24689e-011
5
root  -92.2878 36.2885 -2.11105 139.763 78.4408 141.15
RightUpLeg  -27.4536 -0.890094 -6.46735
RightLeg  -6.33411 -24.0736 1.90863
RightFoot  -32.0544 0.272372 1.71935
RightToes  -1.74624e-010 -1.59028e-015 9.93923e-017
Spine  -8.23947 -9.15372 -23.2867
Spine1  12.1421 -9.65057 10.9133
HEad  -20.2087 1.3031 3.46973
LeftShoulder1  9.93923e-017 0 1.22299e-017
LeftArm  20.316 -9.44724 -76.724
LeftForeArm  -37.1067 -35.6705 21.8892
LeftHand  0.967401 6.90447 1.40954
RightShoulder  1.98785e-016 -4.96962e-017 1.55301e-017
RightArm  3.91623 -61.8234 67.3716
RightForeArm  -10.5767 11.3437 2.62018
RightHand  2.75035 -21.8242 -5.05427
LeftUpLeg  11.0495 1.1197 -4.48499
LeftLeg  26.4311 -18.85 -0.427178
LeftFoot  -25.7454 -0.208887 -1.26769
LeftToes  4.87492e-010 -9.21916e-011 1.24689e-011
6
root  -90.3078 36.0977 -1.97026 142.11 78.7007 143.058
RightUpLeg  -28.6974 -0.927275 -5.93474
RightLeg  -7.22439 -25.8336 2.90506
RightFoot  -34.7389 0.43739 2.32991
RightToes  -1.74624e-010 -1.59028e-015 9.93923e-017
Spine  -8.70214 -9.53139 -22.4974
Spine1  12.8644 -10.1344 11.8889
HEad  -20.5307 1.80997 3.04119
LeftShoulder1  9.93923e-017 0 1.22299e-017
LeftArm  17.6524 -10.2511 -76.5691
LeftForeArm  -36.097 -35.3738 21.8064
LeftHand  0.966537 6.90162 1.61136
RightShoulder  1.98785e-016 -4.96962e-017 1.55301e-017
RightArm  2.42651 -62.5379 65.5605
RightForeArm  -8.50022 10.4139 3.24866
RightHand  2.59227 -21.4842 -4.26389
LeftUpLeg  14.2264 0.285521 -2.72267
LeftLeg  25.2122 -19.313 -1.19533
LeftFoot  -22.8216 -0.335571 -3.27537
LeftToes  4.87492e-010 -9.21916e-011 1.24689e-011
7
root  -88.2893 35.8948 -1.81657 146.896 79.1945 147.109
RightUpLeg  -28.9263 -0.428293 -4.47173
RightLeg  -5.01079 -28.7614 1.85348
RightFoot  -33.596 0.293625 1.58921
RightToes  -1.74624e-010 -1.59028e-015 9.93923e-017
Spine  -9.14842 -9.75713 -21.1096
Spine1  13.9883 -10.9295 12.829
HEad  -20.685 2.04465 2.4419
LeftShoulder1  9.93923e-017 0 1.22299e-017
LeftArm  14.1875 -9.00921 -76.9727
LeftForeArm  -35.6603 -35.5675 21.9253
LeftHand  0.97435 6.95637 1.98967
RightShoulder  1.98785e-016 -4.96962e-017 1.55301e-017
RightArm  1.94729 -63.2032 64.3428
RightForeArm  -8.63964 10.4515 3.03365
RightHand  2.59822 -21.5763 -4.21305
LeftUpLeg  16.343 -2.18937 -1.25338
LeftLeg  24.9985 -17.504 -1.49846
LeftFoot  -19.0626 -0.364525 -6.4105
LeftToes  4.87492e-010 -9.21916e-011 1.24689e-011
8
root  -86.2764 35.7429 -1.67176 157.801 79.4205 157.289
RightUpLeg  -27.8905 1.22944 -2.42538
RightLeg  -2.35005 -32.7788 -0.201024
RightFoot  -27.2633 -0.153613 -1.29252
RightToes  -1.74624e-010 -1.59028e-015 9.93923e-017
Spine  -9.39513 -9.97569 -18.3848
Spine1  14.904 -11.9026 13.2388
HEad  -20.6267 2.07424 1.77747
LeftShoulder1  9.93923e-017 0 1.22299e-017
LeftArm  11.6438 -5.91338 -78.189
LeftForeArm  -36.2176 -35.6545 21.935
LeftHand  0.961862 6.89225 2.95604
RightShoulder  1.98785e-016 -4.96962e-017 1.55301e-017
RightArm  2.70028 -63.9872 64.2249
RightForeArm  -11.2877 11.486 2.05929
RightHand  2.71503 -21.9641 -4.66524
LeftUpLeg  17.1728 -5.72965 0.950392
LeftLeg  26.2924 -14.1671 -1.82233
LeftFoot  -13.2744 -0.0130448 -10.3078
LeftToes  4.87492e-010 -9.21916e-011 1.24689e-011
9
root  -84.4398 35.7964 -1.54193 172.349 79.191 171.569
RightUpLeg  -28.5256 3.13425 -0.116273
RightLeg  5.52664 -37.5756 -5.58783
RightFoot  -18.2321 -0.182838 -4.27373
RightToes  -1.74624e-010 -1.59028e-015 9.93923e-017
Spine  -8.76586 -9.78671 -14.2417
Spine1  15.128 -12.3496 12.9394
HEad  -20.8271 1.71489 1.29651
LeftShoulder1  9.93923e-017 0 1.22299e-017
LeftArm  11.3216 -1.85655 -80.4385
LeftForeArm  -37.4413 -34.6418 21.3809
LeftHand  0.941481 6.78678 3.95437
RightShoulder  1.98785e-016 -4.96962e-017 1.55301e-017
RightArm  1.79746 -64.0696 65.8846
RightForeArm  -13.068 12.0881 1.46434
RightHand  2.76648 -22.1546 -4.83728
LeftUpLeg  16.265 -6.73173 4.68256
LeftLeg  29.5855 -12.2509 -1.50447
LeftFoot  -2.70916 1.01148 -11.2866
LeftToes  4.87492e-010 -9.21916e-011 1.24689e-011
10
root  -82.707 35.9423 -1.40169 -175.942 78.9992 -176.403
RightUpLeg  -29.0611 2.38811 3.14535
RightLeg  13.5886 -38.3009 -11.2689
RightFoot  -10.3708 0.143126 -6.66106
RightToes  -1.74624e-010 -1.59028e-015 9.93923e-017
Spine  -7.36373 -8.8813 -9.93309
Spine1  15.0905 -11.8134 12.3221
HEad  -21.5189 0.63726 1.38019
LeftShoulder1  9.93923e-017 0 1.22299e-017
LeftArm  14.0131 1.96889 -83.5282
LeftForeArm  -39.323 -31.6714 20.0804
LeftHand  0.932039 6.73519 4.00972
RightShoulder  1.98785e-016 -4.96962e-017 1.55301e-017
RightArm  -2.96834 -62.2093 69.184
RightForeArm  -10.4531 11.0333 2.33627
RightHand  2.65207 -21.9426 -4.24064
LeftUpLeg  13.7142 -6.40066 7.84466
LeftLeg  35.2937 -9.95946 0.467753
LeftFoot  10.7444 1.86012 -8.56504
LeftToes  4.87492e-010 -9.21916e-011 1.24689e-011
11
root  -80.9639 36.0273 -1.22975 -169.826 79.2713 -169.731
RightUpLeg  -28.83 0.220252 6.20569
RightLeg  19.9605 -35.3286 -15.7516
RightFoot  -8.9844 0.248898 -6.90941
RightToes  -1.74624e-010 -1.59028e-015 9.93923e-017
Spine  -6.24253 -7.59396 -7.07051
Spine1  15.4534 -10.6744 11.7404
HEad  -22.0969 -0.76879 2.04942
LeftShoulder1  9.93923e-017 0 1.22299e-017
LeftArm  18.4177 5.26594 -86.7758
LeftForeArm  -41.1139 -26.8767 16.9129
LeftHand  0.921571 6.6487 2.95708
RightShoulder  1.98785e-016 -4.96962e-017 1.55301e-017
RightArm  -8.80718 -58.1762 73.0955
RightForeArm  -5.67488 9.16479 3.7229
RightHand  2.49427 -21.6479 -3.39667
LeftUpLeg  9.82762 -5.73416 9.30122
LeftLeg  42.8911 -7.41346 3.75325
LeftFoot  19.121 1.87452 -6.17123
LeftToes  4.87492e-010 -9.21916e-011 1.24689e-011
12
root  -79.1763 36.2981 -1.03792 -167.966 79.6453 -167.435
RightUpLeg  -26.6286 -0.16021 7.59827
RightLeg  22.8478 -33.7708 -17.6442
RightFoot  -11.431 0.0865667 -5.92093
RightToes  -1.74624e-010 -1.59028e-015 9.93923e-017
Spine  -6.04115 -6.38403 -5.73381
Spine1  15.9864 -9.55228 11.1505
HEad  -21.6205 -1.9259 2.83651
LeftShoulder1  9.93923e-017 0 1.22299e-017
LeftArm  13.0687 8.62194 -88.867
LeftForeArm  -32.0496 -21.0179 7.62861
LeftHand  0.930623 6.65514 0.876242
RightShoulder  1.98785e-016 -4.96962e-017 1.55301e-017
RightArm  -11.5342 -53.1903 76.6762
RightForeArm  -4.06884 8.82607 3.89801
RightHand  2.50087 -21.7476 -3.34838
LeftUpLeg  4.92647 -5.15558 9.13958
LeftLeg  50.2059 -6.38698 6.73258
LeftFoot  18.828 1.47138 -4.8613
LeftToes  4.87492e-010 -9.21916e-011 1.24689e-011
